<?xml version="1.0" standalone="no"?>
<!DOCTYPE svg PUBLIC "-//W3C//DTD SVG 20010904//EN"
 "http://www.w3.org/TR/2001/REC-SVG-20010904/DTD/svg10.dtd">
<svg version="1.0" xmlns="http://www.w3.org/2000/svg"
 width="310.000000pt" height="310.000000pt" viewBox="0 0 310.000000 310.000000"
 preserveAspectRatio="xMidYMid meet">

<g transform="translate(0.000000,310.000000) scale(0.100000,-0.100000)"
fill="#000000" stroke="none">
<path d="M1632 2508 c-20 -25 -233 -590 -228 -605 4 -9 16 -13 32 -11 25 3 34
22 141 298 80 207 111 299 105 310 -12 20 -36 24 -50 8z"/>
<path d="M1262 2315 c-73 -58 -122 -103 -122 -114 0 -11 50 -57 126 -116 102
-79 130 -96 143 -88 35 22 22 42 -78 120 -55 43 -100 81 -101 84 0 4 45 41
100 84 78 60 100 83 98 99 -6 43 -41 29 -166 -69z"/>
<path d="M1671 2396 c-18 -21 -6 -36 95 -114 52 -40 94 -77 94 -81 0 -4 -45
-43 -100 -86 -55 -42 -100 -83 -100 -90 0 -18 27 -38 44 -32 8 3 67 47 130 97
75 60 116 98 116 111 0 21 -228 209 -253 209 -8 0 -20 -6 -26 -14z"/>
<path d="M1619 1746 c-50 -18 -95 -51 -116 -86 -16 -28 -22 -30 -75 -30 l-58
0 0 45 0 45 -74 0 -75 0 -3 -42 -3 -43 -62 -3 -63 -3 0 46 0 45 -80 0 -80 0 0
-45 c0 -41 -2 -45 -25 -45 -20 0 -25 -5 -25 -25 l0 -25 -47 30 c-83 53 -206
36 -262 -36 l-21 -27 0 102 0 101 -75 0 -74 0 -3 -107 -3 -108 -45 108 -44
107 -88 0 -88 0 0 -245 0 -245 75 0 74 0 3 107 3 108 41 -105 42 -105 91 -3
91 -3 0 46 0 47 27 -33 c35 -41 96 -69 154 -69 50 0 134 22 163 43 18 13 18
15 -9 60 l-27 47 30 0 c29 0 31 3 35 43 3 33 4 28 5 -21 4 -131 39 -162 182
-162 l91 0 -3 73 -3 72 -52 3 -53 3 0 35 0 34 65 0 65 0 0 -76 c0 -73 1 -77
34 -110 34 -34 34 -34 130 -34 l96 0 0 60 0 60 37 -41 c58 -64 104 -84 198
-84 91 0 175 30 175 61 0 15 5 13 28 -9 86 -83 230 -74 311 19 25 28 36 35 39
24 10 -29 73 -80 115 -91 92 -25 238 10 245 58 3 22 5 21 39 -12 39 -37 85
-55 146 -55 53 0 117 17 147 40 l25 19 -23 45 -22 46 25 0 c26 0 28 4 25 60
-2 56 -18 94 -53 128 -40 39 -75 52 -139 52 -59 0 -109 -21 -143 -62 l-25 -30
0 101 0 101 -80 0 -80 0 0 -55 0 -55 -40 0 c-52 0 -111 -30 -146 -74 l-27 -34
-21 31 c-46 67 -175 99 -259 63 -75 -32 -124 -119 -114 -205 5 -45 5 -45 -9
-18 -17 32 -15 31 -61 12 -115 -48 -213 33 -169 139 26 62 100 79 179 39 15
-8 31 -12 35 -9 5 3 19 28 32 56 18 39 21 55 13 68 -27 44 -184 67 -264 38z
m211 -31 c34 -18 36 -25 14 -66 -14 -27 -19 -30 -42 -23 -15 5 -53 9 -84 9
-51 0 -61 -3 -89 -32 -26 -26 -33 -41 -37 -85 -9 -119 94 -177 220 -124 12 6
21 0 32 -23 24 -45 20 -60 -21 -77 -43 -18 -155 -21 -198 -4 -79 30 -128 96
-140 186 -21 154 94 272 252 260 34 -3 76 -12 93 -21z m-1477 -140 l62 -150 3
153 3 152 54 0 55 0 -2 -222 -3 -223 -70 0 -69 0 -61 147 c-33 81 -63 150 -67
154 -5 4 -8 -63 -8 -149 l0 -157 -50 0 -50 0 0 225 0 226 71 -3 71 -3 61 -150z
m2247 -59 l0 -214 -31 -11 c-161 -56 -299 19 -299 161 1 95 80 168 182 168
l48 0 0 55 0 55 50 0 50 0 0 -214z m-1540 139 l0 -45 48 0 c63 0 74 -9 70 -56
l-3 -39 -55 -5 -55 -5 -3 -42 c-5 -63 9 -81 66 -85 l47 -3 0 -45 0 -45 -82 0
c-113 0 -126 13 -133 133 -5 87 -5 87 -33 90 -27 3 -28 6 -25 50 3 43 5 47 31
50 25 3 27 7 27 48 l0 44 50 0 50 0 0 -45z m288 -2 l3 -42 52 -3 52 -3 3 -47
3 -48 -55 0 -56 0 0 -53 c0 -29 5 -58 12 -65 7 -7 32 -12 56 -12 l43 0 -3 -47
-3 -48 -82 0 c-113 0 -126 12 -133 133 -5 81 -6 87 -28 90 -21 3 -23 8 -20 50
3 40 6 47 26 50 19 3 22 9 22 48 l0 45 53 -3 52 -3 3 -42z m-529 -61 c43 -32
64 -69 69 -121 l5 -51 -112 0 c-61 0 -111 -4 -111 -8 0 -5 9 -17 20 -27 15
-14 30 -16 67 -13 27 3 56 9 65 13 13 5 22 -3 37 -33 l20 -39 -40 -19 c-88
-39 -203 -18 -251 47 -66 88 -24 238 76 269 44 13 126 4 155 -18z m1326 9
c111 -50 137 -191 51 -277 -82 -82 -243 -60 -290 40 -20 42 -21 128 -2 164 41
80 152 114 241 73z m735 -3 c51 -26 90 -89 90 -145 l0 -33 -117 0 -116 0 24
-26 c21 -22 30 -25 69 -21 25 2 54 7 65 11 16 6 24 0 40 -30 19 -35 19 -37 1
-49 -28 -21 -112 -36 -157 -29 -114 18 -176 129 -135 238 20 52 42 73 93 92
55 19 93 17 143 -8z m-1420 -130 c0 -7 3 -23 6 -35 6 -22 3 -23 -45 -23 l-51
0 0 35 c0 35 0 35 45 35 29 0 45 -4 45 -12z m-697 -75 c-7 -2 -21 -2 -30 0
-10 3 -4 5 12 5 17 0 24 -2 18 -5z m2070 0 c-7 -2 -19 -2 -25 0 -7 3 -2 5 12
5 14 0 19 -2 13 -5z"/>
<path d="M2397 1502 c-24 -26 -22 -87 4 -113 14 -14 30 -19 57 -17 l37 3 3 73
3 72 -44 0 c-30 0 -49 -6 -60 -18z m73 -57 c0 -60 -9 -67 -48 -39 -39 27 -19
94 29 94 16 0 19 -7 19 -55z"/>
<path d="M682 1518 c-26 -26 -13 -38 43 -38 38 0 55 4 55 13 0 22 -22 37 -55
37 -17 0 -36 -5 -43 -12z"/>
<path d="M2011 1494 c-12 -15 -21 -37 -21 -49 0 -12 9 -34 21 -49 42 -54 129
-19 129 52 0 69 -87 99 -129 46z m86 -2 c24 -15 26 -59 4 -81 -25 -25 -44 -27
-65 -5 -19 18 -21 65 -4 82 13 13 47 16 65 4z"/>
<path d="M2762 1518 c-26 -26 -13 -38 43 -38 38 0 55 4 55 13 0 22 -22 37 -55
37 -17 0 -36 -5 -43 -12z"/>
<path d="M1317 1083 c-19 -67 -38 -177 -33 -189 11 -28 40 -10 52 31 10 36 14
40 44 40 33 0 34 -1 34 -40 1 -33 5 -40 20 -40 14 0 22 10 29 35 8 32 10 33
17 14 18 -48 86 -69 125 -40 28 20 6 44 -35 38 -17 -2 -30 0 -30 6 0 6 24 12
53 14 49 3 52 4 49 28 -2 14 -11 33 -19 43 -23 24 -83 22 -112 -4 -28 -27 -32
-23 -21 26 10 45 6 55 -21 55 -20 0 -23 -4 -33 -52 -6 -24 -11 -28 -42 -28
-34 0 -35 1 -32 38 3 31 0 37 -19 40 -14 2 -23 -3 -26 -15z m273 -93 c0 -5 -9
-10 -21 -10 -11 0 -17 5 -14 10 3 6 13 10 21 10 8 0 14 -4 14 -10z"/>
<path d="M1666 1018 c-14 -52 -7 -97 18 -113 13 -9 31 -13 41 -9 13 5 16 3 13
-7 -3 -9 -18 -14 -42 -13 -37 1 -41 -2 -30 -30 8 -20 82 -22 108 -3 21 15 60
177 47 190 -20 20 -46 1 -54 -41 -5 -25 -16 -46 -28 -52 -24 -13 -30 -1 -27
55 3 34 0 40 -18 43 -15 2 -23 -4 -28 -20z"/>
</g>
</svg>
